<?xml version="1.0" encoding="UTF-8" standalone="no"?>
<!DOCTYPE svg PUBLIC "-//W3C//DTD SVG 1.1//EN" "http://www.w3.org/Graphics/SVG/1.1/DTD/svg11.dtd">
<svg version="1.1" xmlns="http://www.w3.org/2000/svg" xmlns:xlink="http://www.w3.org/1999/xlink" preserveAspectRatio="xMidYMid meet" viewBox="112.44262295081964 166.95081967213108 125.31147540983605 125.31147540983605" width="121.31" height="121.31"><defs><path d="M149.92 167.96L150.15 167.98L150.38 168L150.6 168.03L150.82 168.06L151.04 168.1L151.25 168.15L151.46 168.2L151.67 168.25L151.87 168.31L152.07 168.38L152.26 168.45L152.45 168.53L152.64 168.61L152.81 168.69L152.99 168.78L153.16 168.87L153.32 168.97L153.48 169.07L153.63 169.18L153.77 169.29L153.91 169.4L154.05 169.52L154.17 169.64L154.29 169.77L154.4 169.89L154.51 170.02L154.61 170.16L154.7 170.29L154.78 170.43L154.85 170.57L154.92 170.72L154.98 170.86L155.03 171.01L155.07 171.16L155.1 171.32L155.12 171.47L155.14 171.63L155.14 171.78L155.14 178.07L168.41 178.07L168.41 171.78L168.42 171.63L168.43 171.47L168.45 171.32L168.49 171.16L168.53 171.01L168.58 170.86L168.64 170.72L168.7 170.57L168.78 170.43L168.86 170.29L168.95 170.16L169.05 170.02L169.15 169.89L169.26 169.77L169.38 169.64L169.51 169.52L169.64 169.4L169.78 169.29L169.93 169.18L170.08 169.07L170.24 168.97L170.4 168.87L170.57 168.78L170.74 168.69L170.92 168.61L171.1 168.53L171.29 168.45L171.49 168.38L171.68 168.31L171.89 168.25L172.09 168.2L172.3 168.15L172.52 168.1L172.73 168.06L172.95 168.03L173.18 168L173.4 167.98L173.63 167.96L173.86 167.95L174.1 167.95L174.33 167.95L174.56 167.96L174.79 167.98L175.02 168L175.24 168.03L175.46 168.06L175.68 168.1L175.89 168.15L176.1 168.2L176.31 168.25L176.51 168.31L176.71 168.38L176.9 168.45L177.09 168.53L177.28 168.61L177.46 168.69L177.63 168.78L177.8 168.87L177.96 168.97L178.12 169.07L178.27 169.18L178.42 169.29L178.55 169.4L178.69 169.52L178.81 169.64L178.93 169.77L179.04 169.89L179.15 170.02L179.25 170.16L179.34 170.29L179.42 170.43L179.49 170.57L179.56 170.72L179.62 170.86L179.67 171.01L179.71 171.16L179.74 171.32L179.77 171.47L179.78 171.63L179.78 171.78L179.78 178.07L193.05 178.07L193.05 171.78L193.06 171.63L193.07 171.47L193.1 171.32L193.13 171.16L193.17 171.01L193.22 170.86L193.28 170.72L193.34 170.57L193.42 170.43L193.5 170.29L193.59 170.16L193.69 170.02L193.79 169.89L193.91 169.77L194.02 169.64L194.15 169.52L194.28 169.4L194.42 169.29L194.57 169.18L194.72 169.07L194.88 168.97L195.04 168.87L195.21 168.78L195.38 168.69L195.56 168.61L195.75 168.53L195.93 168.45L196.13 168.38L196.33 168.31L196.53 168.25L196.73 168.2L196.94 168.15L197.16 168.1L197.37 168.06L197.59 168.03L197.82 168L198.04 167.98L198.27 167.96L198.51 167.95L198.74 167.95L198.97 167.95L199.21 167.96L199.44 167.98L199.66 168L199.89 168.03L200.11 168.06L200.32 168.1L200.54 168.15L200.75 168.2L200.95 168.25L201.15 168.31L201.35 168.38L201.55 168.45L201.73 168.53L201.92 168.61L202.1 168.69L202.27 168.78L202.44 168.87L202.6 168.97L202.76 169.07L202.91 169.18L203.06 169.29L203.2 169.4L203.33 169.52L203.45 169.64L203.57 169.77L203.69 169.89L203.79 170.02L203.89 170.16L203.98 170.29L204.06 170.43L204.14 170.57L204.2 170.72L204.26 170.86L204.31 171.01L204.35 171.16L204.38 171.32L204.41 171.47L204.42 171.63L204.43 171.78L204.43 178.07L234.75 178.07L234.75 289.26L113.44 289.26L113.44 178.07L143.77 178.07L143.77 171.78L143.78 171.63L143.79 171.47L143.81 171.32L143.84 171.16L143.89 171.01L143.94 170.86L143.99 170.72L144.06 170.57L144.14 170.43L144.22 170.29L144.31 170.16L144.41 170.02L144.51 169.89L144.62 169.77L144.74 169.64L144.87 169.52L145 169.4L145.14 169.29L145.29 169.18L145.44 169.07L145.59 168.97L145.76 168.87L145.93 168.78L146.1 168.69L146.28 168.61L146.46 168.53L146.65 168.45L146.84 168.38L147.04 168.31L147.24 168.25L147.45 168.2L147.66 168.15L147.87 168.1L148.09 168.06L148.31 168.03L148.54 168L148.76 167.98L148.99 167.96L149.22 167.95L149.46 167.95L149.69 167.95L149.92 167.96ZM124.82 277.76L223.38 277.76L223.38 189.58L204.43 189.58L204.43 194.79L204.42 194.95L204.41 195.1L204.38 195.26L204.35 195.41L204.31 195.56L204.26 195.71L204.2 195.86L204.14 196L204.06 196.14L203.98 196.28L203.89 196.42L203.79 196.55L203.72 196.64L193.76 196.64L193.69 196.55L193.59 196.42L193.5 196.28L193.42 196.14L193.34 196L193.28 195.86L193.22 195.71L193.17 195.56L193.13 195.41L193.1 195.26L193.07 195.1L193.06 194.95L193.05 194.79L193.05 189.58L179.78 189.58L179.78 194.79L179.78 194.95L179.77 195.1L179.74 195.26L179.71 195.41L179.67 195.56L179.62 195.71L179.56 195.86L179.49 196L179.42 196.14L179.34 196.28L179.25 196.42L179.15 196.55L179.08 196.64L169.12 196.64L169.05 196.55L168.95 196.42L168.86 196.28L168.78 196.14L168.7 196L168.64 195.86L168.58 195.71L168.53 195.56L168.49 195.41L168.45 195.26L168.43 195.1L168.42 194.95L168.41 194.79L168.41 189.58L155.14 189.58L155.14 194.79L155.14 194.95L155.12 195.1L155.1 195.26L155.07 195.41L155.03 195.56L154.98 195.71L154.92 195.86L154.85 196L154.78 196.14L154.7 196.28L154.61 196.42L154.51 196.55L154.44 196.64L144.48 196.64L144.41 196.55L144.31 196.42L144.22 196.28L144.14 196.14L144.06 196L143.99 195.86L143.94 195.71L143.89 195.56L143.84 195.41L143.81 195.26L143.79 195.1L143.78 194.95L143.77 194.79L143.77 189.58L124.82 189.58L124.82 277.76Z" id="dIBpEshd2"></path></defs><g><g><use xlink:href="#dIBpEshd2" opacity="1" fill="#161c2b" fill-opacity="1"></use></g></g></svg>